<?xml version="1.0" standalone="no"?><!DOCTYPE svg PUBLIC "-//W3C//DTD SVG 1.1//EN" "http://www.w3.org/Graphics/SVG/1.1/DTD/svg11.dtd"><svg t="1585644980356" class="icon" viewBox="0 0 1024 1024" version="1.1" xmlns="http://www.w3.org/2000/svg" p-id="1466" xmlns:xlink="http://www.w3.org/1999/xlink" width="128" height="128"><defs><style type="text/css"></style></defs><path d="M810.666667 810.666667h-153.6c-14.933333 0-27.733333-6.4-36.266667-17.066667L550.4 704c-21.333333-23.466667-55.466667-21.333333-74.666667 2.133333l-46.933333 85.333334c-8.533333 12.8-23.466667 19.2-38.4 19.2H213.333333c-46.933333 0-85.333333-38.4-85.333333-85.333334V298.666667c0-46.933333 38.4-85.333333 85.333333-85.333334h597.333334c46.933333 0 85.333333 38.4 85.333333 85.333334v426.666666c0 46.933333-38.4 85.333333-85.333333 85.333334z" fill="#2953FF" p-id="1467"></path><path d="M693.333333 448m-96 0a96 96 0 1 0 192 0 96 96 0 1 0-192 0Z" fill="#FF354A" p-id="1468"></path><path d="M330.666667 448m-96 0a96 96 0 1 0 192 0 96 96 0 1 0-192 0Z" fill="#FCCA1E" p-id="1469"></path></svg>