<?xml version="1.0" standalone="no"?><!DOCTYPE svg PUBLIC "-//W3C//DTD SVG 1.1//EN" "http://www.w3.org/Graphics/SVG/1.1/DTD/svg11.dtd"><svg t="1585907472639" class="icon" viewBox="0 0 1024 1024" version="1.1" xmlns="http://www.w3.org/2000/svg" p-id="1278" xmlns:xlink="http://www.w3.org/1999/xlink" width="128" height="128"><defs><style type="text/css"></style></defs><path d="M512 947.2c-44.8 0-83.2-29.866667-91.733333-70.4l-36.266667-213.333333c-10.666667-53.333333 34.133333-100.266667 91.733333-100.266667h70.4c57.6 0 100.266667 46.933333 91.733334 100.266667l-36.266667 213.333333c-6.4 40.533333-44.8 70.4-89.6 70.4z" fill="#93A8FF" p-id="1279"></path><path d="M512 375.466667m-298.666667 0a298.666667 298.666667 0 1 0 597.333334 0 298.666667 298.666667 0 1 0-597.333334 0Z" fill="#2953FF" p-id="1280"></path><path d="M821.333333 428.8h-618.666666C172.8 428.8 149.333333 405.333333 149.333333 375.466667s23.466667-53.333333 53.333334-53.333334h618.666666c29.866667 0 53.333333 23.466667 53.333334 53.333334s-23.466667 53.333333-53.333334 53.333333zM512 785.066667c-23.466667 0-42.666667-19.2-42.666667-42.666667s19.2-42.666667 42.666667-42.666667 42.666667 19.2 42.666667 42.666667-19.2 42.666667-42.666667 42.666667zM512 891.733333c-23.466667 0-42.666667-19.2-42.666667-42.666666s19.2-42.666667 42.666667-42.666667 42.666667 19.2 42.666667 42.666667-19.2 42.666667-42.666667 42.666666z" fill="#F9BD39" p-id="1281" data-spm-anchor-id="a313x.7781069.0.i0" class="selected"></path></svg>