<?xml version="1.0" standalone="no"?><!DOCTYPE svg PUBLIC "-//W3C//DTD SVG 1.1//EN" "http://www.w3.org/Graphics/SVG/1.1/DTD/svg11.dtd"><svg t="1586394833230" class="icon" viewBox="0 0 1024 1024" version="1.1" xmlns="http://www.w3.org/2000/svg" p-id="1800" xmlns:xlink="http://www.w3.org/1999/xlink" width="64" height="64"><defs><style type="text/css"></style></defs><path d="M512 512m-384 0a384 384 0 1 0 768 0 384 384 0 1 0-768 0Z" fill="#E0E5EC" p-id="1801" data-spm-anchor-id="a313x.7781069.0.i11" class="selected"></path><path d="M601.6 601.6L704 377.6c17.066667-36.266667-21.333333-72.533333-55.466667-55.466667l-224 100.266667 177.066667 179.2z" fill="#FCCA1E" p-id="1802"></path><path d="M422.4 422.4L320 646.4c-17.066667 36.266667 21.333333 72.533333 55.466667 55.466667l224-100.266667-177.066667-179.2z" fill="#FF354A" p-id="1803"></path><path d="M466.642947 557.262945a64 64 0 1 0 90.508089-90.511247 64 64 0 1 0-90.508089 90.511247Z" fill="#93A8FF" p-id="1804"></path></svg>